<?xml version="1.0" encoding="utf-8"?>
<!-- Generator: Adobe Illustrator 16.0.0, SVG Export Plug-In . SVG Version: 6.00 Build 0)  -->
<!DOCTYPE svg PUBLIC "-//W3C//DTD SVG 1.1//EN" "http://www.w3.org/Graphics/SVG/1.1/DTD/svg11.dtd">
<svg version="1.1" id="Layer_1" xmlns="http://www.w3.org/2000/svg" xmlns:xlink="http://www.w3.org/1999/xlink" x="0px" y="0px"
	 width="841.89px" height="595.28px" viewBox="0 0 841.89 595.28" enable-background="new 0 0 841.89 595.28" xml:space="preserve">
<g>
	<path stroke="#000000" stroke-width="2" stroke-linecap="square" stroke-linejoin="round" stroke-miterlimit="10" d="
		M264.6,420.479h325.8 M264.6,420.479v-3.258 M297.18,420.479v-3.258 M329.76,420.479v-3.258 M362.34,420.479v-3.258
		 M394.92,420.479v-3.258 M427.5,420.479v-3.258 M460.08,420.479v-3.258 M492.66,420.479v-3.258 M525.24,420.479v-3.258
		 M557.82,420.479v-3.258 M590.4,420.479v-3.258"/>
	<text transform="matrix(1 0 0 1 258.8989 434.6787)" font-family="'Arial-BoldMT'" font-size="12">16</text>
	<text transform="matrix(1 0 0 1 291.4849 434.6787)" font-family="'Arial-BoldMT'" font-size="12">18</text>
	<text transform="matrix(1 0 0 1 324.063 434.6787)" font-family="'Arial-BoldMT'" font-size="12">20</text>
	<text transform="matrix(1 0 0 1 356.6411 434.6787)" font-family="'Arial-BoldMT'" font-size="12">22</text>
	<text transform="matrix(1 0 0 1 389.2192 434.6787)" font-family="'Arial-BoldMT'" font-size="12">24</text>
	<text transform="matrix(1 0 0 1 421.7969 434.6787)" font-family="'Arial-BoldMT'" font-size="12">26</text>
	<text transform="matrix(1 0 0 1 454.3828 434.6787)" font-family="'Arial-BoldMT'" font-size="12">28</text>
	<text transform="matrix(1 0 0 1 486.9531 434.6787)" font-family="'Arial-BoldMT'" font-size="12">30</text>
	<text transform="matrix(1 0 0 1 519.5391 434.6787)" font-family="'Arial-BoldMT'" font-size="12">32</text>
	<text transform="matrix(1 0 0 1 552.125 434.6787)" font-family="'Arial-BoldMT'" font-size="12">34</text>
	<text transform="matrix(1 0 0 1 584.7031 434.6787)" font-family="'Arial-BoldMT'" font-size="12">36</text>
	<text transform="matrix(1 0 0 1 374.0864 449.4834)" font-family="'Arial-BoldMT'" font-size="12">average speed (cm/s)</text>
	<path stroke="#000000" stroke-width="2" stroke-linecap="square" stroke-linejoin="round" stroke-miterlimit="10" d="
		M264.6,420.479V163.68 M264.6,420.479h3.258 M264.6,383.794h3.258 M264.6,347.108h3.258 M264.6,310.423h3.258 M264.6,273.738h3.258
		 M264.6,237.052h3.258 M264.6,200.366h3.258 M264.6,163.68h3.258"/>
	<text transform="matrix(1 0 0 1 249.2036 424.3818)" font-family="'Arial-BoldMT'" font-size="12">20</text>
	<text transform="matrix(1 0 0 1 249.2036 387.7021)" font-family="'Arial-BoldMT'" font-size="12">30</text>
	<text transform="matrix(1 0 0 1 249.2036 351.0068)" font-family="'Arial-BoldMT'" font-size="12">40</text>
	<text transform="matrix(1 0 0 1 249.2036 314.3271)" font-family="'Arial-BoldMT'" font-size="12">50</text>
	<text transform="matrix(1 0 0 1 249.2036 277.6396)" font-family="'Arial-BoldMT'" font-size="12">60</text>
	<text transform="matrix(1 0 0 1 249.2036 240.9521)" font-family="'Arial-BoldMT'" font-size="12">70</text>
	<text transform="matrix(1 0 0 1 249.2036 204.2646)" font-family="'Arial-BoldMT'" font-size="12">80</text>
	<text transform="matrix(1 0 0 1 249.2036 167.5771)" font-family="'Arial-BoldMT'" font-size="12">90</text>
	<text transform="matrix(0 -1 1 0 243.2036 360.1787)" font-family="'Arial-BoldMT'" font-size="12">average distance walls (cm</text>
	<text transform="matrix(0 -1 1 0 243.2036 205.7178)" font-family="'Arial-BoldMT'" font-size="12">)</text>
	<path fill="#3E95D1" stroke="#000000" stroke-miterlimit="10" d="M535.945,175.686c0-1.657-1.344-3-3-3s-3,1.343-3,3s1.344,3,3,3
		S535.945,177.342,535.945,175.686L535.945,175.686z"/>
	<path fill="#3E95D1" stroke="#000000" stroke-miterlimit="10" d="M514.238,178.772c0-1.657-1.344-3-3-3c-1.658,0-3,1.343-3,3
		c0,1.656,1.342,3,3,3C512.895,181.772,514.238,180.428,514.238,178.772L514.238,178.772z"/>
	<path fill="#3E95D1" stroke="#000000" stroke-miterlimit="10" d="M516.469,211.838c0-1.657-1.344-3-3-3s-3,1.343-3,3
		c0,1.656,1.344,3,3,3S516.469,213.495,516.469,211.838L516.469,211.838z"/>
	<path fill="#3E95D1" stroke="#000000" stroke-miterlimit="10" d="M527.941,168.286c0-1.657-1.344-3-3-3s-3,1.343-3,3s1.344,3,3,3
		S527.941,169.942,527.941,168.286L527.941,168.286z"/>
	<path fill="#3E95D1" stroke="#000000" stroke-miterlimit="10" d="M526.393,197.374c0-1.657-1.344-3-3-3s-3,1.343-3,3s1.344,3,3,3
		S526.393,199.03,526.393,197.374L526.393,197.374z"/>
	<path fill="#3E95D1" stroke="#000000" stroke-miterlimit="10" d="M576.83,202.479c0-1.657-1.342-3-3-3c-1.656,0-3,1.343-3,3
		c0,1.656,1.344,3,3,3C575.488,205.479,576.83,204.136,576.83,202.479L576.83,202.479z"/>
	<path fill="#3E95D1" stroke="#000000" stroke-miterlimit="10" d="M528.908,184.771c0-1.657-1.344-3-3-3s-3,1.343-3,3s1.344,3,3,3
		S528.908,186.428,528.908,184.771L528.908,184.771z"/>
	<path fill="#3E95D1" stroke="#000000" stroke-miterlimit="10" d="M558.531,192.964c0-1.657-1.344-3-3-3s-3,1.343-3,3s1.344,3,3,3
		S558.531,194.621,558.531,192.964L558.531,192.964z"/>
	<path fill="#3E95D1" stroke="#000000" stroke-miterlimit="10" d="M557.605,204.658c0-1.656-1.344-3-3-3s-3,1.344-3,3
		c0,1.657,1.344,3,3,3S557.605,206.314,557.605,204.658L557.605,204.658z"/>
	<path fill="#3E95D1" stroke="#000000" stroke-miterlimit="10" d="M520.91,172.54c0-1.657-1.344-3-3-3s-3,1.343-3,3s1.344,3,3,3
		S520.91,174.197,520.91,172.54L520.91,172.54z"/>
	<path fill="#3E95D1" stroke="#000000" stroke-miterlimit="10" d="M315.825,389.032c0-1.656-1.344-3-3-3c-1.657,0-3,1.344-3,3
		s1.343,3,3,3C314.481,392.032,315.825,390.688,315.825,389.032L315.825,389.032z"/>
	<path fill="#3E95D1" stroke="#000000" stroke-miterlimit="10" d="M315.569,385.474c0-1.656-1.343-3-3-3s-3,1.344-3,3s1.343,3,3,3
		S315.569,387.13,315.569,385.474L315.569,385.474z"/>
	<path fill="#3E95D1" stroke="#000000" stroke-miterlimit="10" d="M325.651,353.722c0-1.656-1.343-3-3-3c-1.656,0-3,1.344-3,3
		s1.344,3,3,3C324.308,356.722,325.651,355.378,325.651,353.722L325.651,353.722z"/>
	<path fill="#3E95D1" stroke="#000000" stroke-miterlimit="10" d="M285.226,366.983c0-1.656-1.344-3-3-3c-1.657,0-3,1.344-3,3
		s1.343,3,3,3C283.882,369.983,285.226,368.64,285.226,366.983L285.226,366.983z"/>
	<path fill="#3E95D1" stroke="#000000" stroke-miterlimit="10" d="M288.329,396.749c0-1.656-1.344-3-3-3c-1.657,0-3,1.344-3,3
		s1.343,3,3,3C286.985,399.749,288.329,398.405,288.329,396.749L288.329,396.749z"/>
	<path fill="#3E95D1" stroke="#000000" stroke-miterlimit="10" d="M305.395,391.942c0-1.658-1.344-3-3-3c-1.657,0-3,1.342-3,3
		c0,1.656,1.343,3,3,3C304.051,394.942,305.395,393.599,305.395,391.942L305.395,391.942z"/>
	<path fill="#3E95D1" stroke="#000000" stroke-miterlimit="10" d="M317.435,393.897c0-1.656-1.344-3-3-3c-1.657,0-3,1.344-3,3
		s1.343,3,3,3C316.091,396.897,317.435,395.554,317.435,393.897L317.435,393.897z"/>
	<path fill="#3E95D1" stroke="#000000" stroke-miterlimit="10" d="M289.354,367.081c0-1.656-1.343-3-3-3c-1.656,0-3,1.344-3,3
		s1.344,3,3,3C288.01,370.081,289.354,368.737,289.354,367.081L289.354,367.081z"/>
	<path fill="#3E95D1" stroke="#000000" stroke-miterlimit="10" d="M299.793,362.495c0-1.656-1.343-3-3-3c-1.656,0-3,1.344-3,3
		s1.344,3,3,3C298.45,365.495,299.793,364.151,299.793,362.495L299.793,362.495z"/>
	<path fill="#3E95D1" stroke="#000000" stroke-miterlimit="10" d="M313.647,331.843c0-1.656-1.343-3-3-3s-3,1.344-3,3s1.343,3,3,3
		S313.647,333.499,313.647,331.843L313.647,331.843z"/>
	<path fill="#3E95D1" stroke="#000000" stroke-miterlimit="10" d="M307.974,359.304c0-1.656-1.344-3-3-3c-1.657,0-3,1.344-3,3
		s1.343,3,3,3C306.63,362.304,307.974,360.96,307.974,359.304L307.974,359.304z"/>
	<path fill="#3E95D1" stroke="#000000" stroke-miterlimit="10" d="M307.147,363.495c0-1.656-1.343-3-3-3s-3,1.344-3,3s1.343,3,3,3
		S307.147,365.151,307.147,363.495L307.147,363.495z"/>
	<path fill="#3E95D1" stroke="#000000" stroke-miterlimit="10" d="M287.409,334.47c0-1.656-1.344-3-3-3c-1.657,0-3,1.344-3,3
		s1.343,3,3,3C286.065,337.47,287.409,336.126,287.409,334.47L287.409,334.47z"/>
	<path fill="#3E95D1" stroke="#000000" stroke-miterlimit="10" d="M304.837,334.69c0-1.656-1.343-3-3-3s-3,1.344-3,3s1.343,3,3,3
		S304.837,336.347,304.837,334.69L304.837,334.69z"/>
	<path fill="#3E95D1" stroke="#000000" stroke-miterlimit="10" d="M300.098,383.647c0-1.656-1.343-3-3-3c-1.656,0-3,1.344-3,3
		s1.344,3,3,3C298.755,386.647,300.098,385.304,300.098,383.647L300.098,383.647z"/>
	<path fill="#3E95D1" stroke="#000000" stroke-miterlimit="10" d="M330.206,352.052c0-1.656-1.343-3-3-3s-3,1.344-3,3s1.343,3,3,3
		S330.206,353.708,330.206,352.052L330.206,352.052z"/>
	<path fill="#3E95D1" stroke="#000000" stroke-miterlimit="10" d="M316.777,331.388c0-1.656-1.344-3-3-3c-1.657,0-3,1.344-3,3
		s1.343,3,3,3C315.433,334.388,316.777,333.044,316.777,331.388L316.777,331.388z"/>
	<path fill="#3E95D1" stroke="#000000" stroke-miterlimit="10" d="M330.003,385.485c0-1.656-1.343-3-3-3c-1.656,0-3,1.344-3,3
		s1.344,3,3,3C328.66,388.485,330.003,387.142,330.003,385.485L330.003,385.485z"/>
	<path fill="#3E95D1" stroke="#000000" stroke-miterlimit="10" d="M323.972,349.603c0-1.656-1.343-3-3-3s-3,1.344-3,3s1.343,3,3,3
		S323.972,351.259,323.972,349.603L323.972,349.603z"/>
	<path fill="#3E95D1" stroke="#000000" stroke-miterlimit="10" d="M287.51,343.604c0-1.656-1.343-3-3-3s-3,1.344-3,3s1.343,3,3,3
		S287.51,345.261,287.51,343.604L287.51,343.604z"/>
	<path fill="#3E95D1" stroke="#000000" stroke-miterlimit="10" d="M491.621,311.583c0-1.656-1.344-3-3-3s-3,1.344-3,3s1.344,3,3,3
		S491.621,313.239,491.621,311.583L491.621,311.583z"/>
	<path fill="#3E95D1" stroke="#000000" stroke-miterlimit="10" d="M477.031,313.106c0-1.656-1.344-3-3-3c-1.658,0-3,1.344-3,3
		s1.342,3,3,3C475.688,316.106,477.031,314.763,477.031,313.106L477.031,313.106z"/>
	<path fill="#3E95D1" stroke="#000000" stroke-miterlimit="10" d="M478.242,321.034c0-1.656-1.344-3-3-3s-3,1.344-3,3s1.344,3,3,3
		S478.242,322.69,478.242,321.034L478.242,321.034z"/>
	<path fill="#3E95D1" stroke="#000000" stroke-miterlimit="10" d="M460.588,328.667c0-1.658-1.344-3-3-3s-3,1.342-3,3
		c0,1.656,1.344,3,3,3S460.588,330.323,460.588,328.667L460.588,328.667z"/>
	<path fill="#3E95D1" stroke="#000000" stroke-miterlimit="10" d="M491.186,328.126c0-1.656-1.344-3-3-3s-3,1.344-3,3s1.344,3,3,3
		S491.186,329.782,491.186,328.126L491.186,328.126z"/>
	<path fill="#3E95D1" stroke="#000000" stroke-miterlimit="10" d="M456.982,328.511c0-1.656-1.344-3-3-3s-3,1.344-3,3s1.344,3,3,3
		S456.982,330.167,456.982,328.511L456.982,328.511z"/>
	<path fill="#3E95D1" stroke="#000000" stroke-miterlimit="10" d="M475.018,317.964c0-1.656-1.344-3-3-3s-3,1.344-3,3s1.344,3,3,3
		S475.018,319.62,475.018,317.964L475.018,317.964z"/>
	<path fill="#3E95D1" stroke="#000000" stroke-miterlimit="10" d="M472.848,321.741c0-1.656-1.342-3-3-3c-1.656,0-3,1.344-3,3
		s1.344,3,3,3C471.506,324.741,472.848,323.397,472.848,321.741L472.848,321.741z"/>
	<path fill="#3E95D1" stroke="#000000" stroke-miterlimit="10" d="M469.516,326.659c0-1.656-1.344-3-3-3s-3,1.344-3,3
		c0,1.658,1.344,3,3,3S469.516,328.317,469.516,326.659L469.516,326.659z"/>
	<path fill="#3E95D1" stroke="#000000" stroke-miterlimit="10" d="M444.969,312.909c0-1.656-1.344-3-3-3c-1.658,0-3,1.344-3,3
		s1.342,3,3,3C443.625,315.909,444.969,314.565,444.969,312.909L444.969,312.909z"/>
	<path fill="#3E95D1" stroke="#000000" stroke-miterlimit="10" d="M474.963,313.694c0-1.656-1.344-3-3-3s-3,1.344-3,3s1.344,3,3,3
		S474.963,315.351,474.963,313.694L474.963,313.694z"/>
	<path fill="#3E95D1" stroke="#000000" stroke-miterlimit="10" d="M487.715,315.239c0-1.658-1.344-3-3-3c-1.658,0-3,1.342-3,3
		c0,1.656,1.342,2.998,3,2.998C486.371,318.237,487.715,316.896,487.715,315.239L487.715,315.239z"/>
	<path fill="#3E95D1" stroke="#000000" stroke-miterlimit="10" d="M482.414,313.353c0-1.658-1.344-3-3-3s-3,1.342-3,3
		c0,1.656,1.344,3,3,3S482.414,315.009,482.414,313.353L482.414,313.353z"/>
	<path fill="#3E95D1" stroke="#000000" stroke-miterlimit="10" d="M458.648,321.401c0-1.656-1.342-3-3-3c-1.656,0-3,1.344-3,3
		s1.344,3,3,3C457.307,324.401,458.648,323.058,458.648,321.401L458.648,321.401z"/>
	<path fill="#3E95D1" stroke="#000000" stroke-miterlimit="10" d="M490.309,315.034c0-1.656-1.344-3-3-3s-3,1.344-3,3s1.344,3,3,3
		S490.309,316.69,490.309,315.034L490.309,315.034z"/>
</g>
</svg>
